<?xml version="1.0" standalone="no"?><!DOCTYPE svg PUBLIC "-//W3C//DTD SVG 1.1//EN" "http://www.w3.org/Graphics/SVG/1.1/DTD/svg11.dtd"><svg t="1561106548754" class="icon" viewBox="0 0 1024 1024" version="1.1" xmlns="http://www.w3.org/2000/svg" p-id="1806" xmlns:xlink="http://www.w3.org/1999/xlink" width="200" height="200"><defs><style type="text/css"></style></defs><path d="M930.048 928H93.952C42.112 928 0 883.84 0 829.568V314.688c0-54.272 42.112-98.432 93.952-98.432h159.424C277.376 157.248 315.008 96 367.36 96h289.28c55.424 0 91.776 61.056 113.92 120.256h159.488c51.84 0 93.952 44.16 93.952 98.432v514.88c0 54.272-42.112 98.432-93.952 98.432zM93.952 280.256c-16.512 0-29.952 15.424-29.952 34.432v514.88c0 19.008 13.44 34.432 29.952 34.432h836.096c16.512 0 29.952-15.424 29.952-34.432V314.688c0-19.008-13.44-34.432-29.952-34.432h-182.272a32 32 0 0 1-30.464-22.144c-21.888-67.648-48.64-98.112-60.672-98.112H367.36c-9.088 0-36.544 29.12-61.952 99.136a32 32 0 0 1-30.08 21.12H93.952z" p-id="1807"></path><path d="M800 384a32 32 0 1 1 0-64 32 32 0 0 1 0 64" p-id="1808"></path><path d="M512 736c-105.856 0-192-86.144-192-192s86.144-192 192-192 192 86.144 192 192-86.144 192-192 192z m0-320c-70.592 0-128 57.408-128 128s57.408 128 128 128 128-57.408 128-128-57.408-128-128-128z" p-id="1809"></path></svg>